# xmcd
#
# Track frame offsets:
#	150
#	17008
#	26183
#	43081
#	61272
#	71110
#	82872
#	95373
#	110087
#	123391
#	133755
#	147017
#	154704
#	168617
#	178830
#	193426
#	207308
#	217649
#	234900
#	248611
#
# Disc length: 3486 seconds
#
# Revision: 0
# Processed by: cddbd v1.5.2PL0 Copyright (c) Steve Scherf et al.
# Submitted via: dBpowerAMP V4.0
#
DISCID=1c0d9c14
DTITLE=Paddy O'Connar and Friends - Songs of Old Ireland
DYEAR=1999
DGENRE=Other
TTITLE0=White, Orange and Green (Tabhair Bom Do Lahm)
TTITLE1=Macushla
TTITLE2=Three Young Ladies Drinking Whiskey Before Breakfast
TTITLE3=Ramblin' Rushman
TTITLE4=Galway Bay
TTITLE5=Close of the Day
TTITLE6=The Wild Rover
TTITLE7=Suila Ruin
TTITLE8=Champion at Keepin' Them Rollin'
TTITLE9=Night Visiting Sun
TTITLE10=Maggie
TTITLE11=Robert Emmet
TTITLE12=Beggarman
TTITLE13=The Spinning Wheel
TTITLE14=Songs of the North
TTITLE15=When Irish Eyes are Smiling
TTITLE16=Turtle Dove
TTITLE17=Wearing of the Green
TTITLE18=Molly Malone
TTITLE19=The Rose of Tralee
EXTD=All titles are performed by Paddy O'Connar and Friends
EXTT0=
EXTT1=
EXTT2=
EXTT3=
EXTT4=
EXTT5=
EXTT6=
EXTT7=
EXTT8=
EXTT9=
EXTT10=
EXTT11=
EXTT12=
EXTT13=
EXTT14=
EXTT15=
EXTT16=
EXTT17=
EXTT18=
EXTT19=
PLAYORDER=
